<svg width="12" height="12" viewBox="0 0 12 12" fill="none" xmlns="http://www.w3.org/2000/svg">
<path d="M9.42409 4.4836L5.89525 8.01244C5.86248 8.04525 5.82356 8.07128 5.78072 8.08904C5.73788 8.1068 5.69196 8.11594 5.64559 8.11594C5.59921 8.11594 5.55329 8.1068 5.51045 8.08904C5.46761 8.07128 5.4287 8.04525 5.39592 8.01244L1.86709 4.4836C1.80087 4.41739 1.76367 4.32758 1.76367 4.23394C1.76367 4.1403 1.80087 4.05049 1.86709 3.98427C1.9333 3.91806 2.02311 3.88086 2.11675 3.88086C2.21039 3.88086 2.3002 3.91806 2.36642 3.98427L5.64559 7.26389L8.92476 3.98427C8.95754 3.95149 8.99647 3.92548 9.03931 3.90774C9.08214 3.88999 9.12806 3.88086 9.17442 3.88086C9.22079 3.88086 9.2667 3.88999 9.30954 3.90774C9.35238 3.92548 9.3913 3.95149 9.42409 3.98427C9.45688 4.01706 9.48288 4.05598 9.50063 4.09882C9.51837 4.14166 9.5275 4.18757 9.5275 4.23394C9.5275 4.28031 9.51837 4.32622 9.50063 4.36906C9.48288 4.41189 9.45688 4.45082 9.42409 4.4836Z" fill="black"/>
</svg>
