<svg width="23" height="23" viewBox="0 0 23 23" fill="none" xmlns="http://www.w3.org/2000/svg">
<path d="M10.5 8.98437C10.9975 8.98437 11.4839 9.13191 11.8976 9.40833C12.3113 9.68475 12.6337 10.0776 12.8241 10.5373C13.0145 10.997 13.0644 11.5028 12.9673 11.9908C12.8702 12.4788 12.6306 12.927 12.2788 13.2788C11.927 13.6306 11.4788 13.8702 10.9908 13.9673C10.5028 14.0644 9.99698 14.0145 9.53731 13.8241C9.07764 13.6337 8.68476 13.3113 8.40833 12.8976C8.13191 12.4839 7.98438 11.9975 7.98438 11.5C7.98438 10.8328 8.24941 10.193 8.72119 9.72118C9.19296 9.24941 9.83282 8.98437 10.5 8.98437ZM5.82813 11.5C5.82813 11.0025 5.68059 10.5161 5.40417 10.1024C5.12775 9.6887 4.73486 9.36627 4.27519 9.17586C3.81552 8.98546 3.30971 8.93564 2.82173 9.03271C2.33374 9.12978 1.8855 9.36937 1.53369 9.72118C1.18187 10.073 0.942279 10.5212 0.845213 11.0092C0.748147 11.4972 0.797965 12.003 0.988367 12.4627C1.17877 12.9224 1.5012 13.3152 1.91489 13.5917C2.32859 13.8681 2.81496 14.0156 3.3125 14.0156C3.97969 14.0156 4.61954 13.7506 5.09132 13.2788C5.56309 12.807 5.82813 12.1672 5.82813 11.5ZM15.1719 11.5C15.1719 11.9975 15.3194 12.4839 15.5958 12.8976C15.8723 13.3113 16.2651 13.6337 16.7248 13.8241C17.1845 14.0145 17.6903 14.0644 18.1783 13.9673C18.6663 13.8702 19.1145 13.6306 19.4663 13.2788C19.8181 12.927 20.0577 12.4788 20.1548 11.9908C20.2519 11.5028 20.202 10.997 20.0116 10.5373C19.8212 10.0776 19.4988 9.68475 19.0851 9.40833C18.6714 9.13191 18.185 8.98437 17.6875 8.98437C17.0203 8.98437 16.3805 9.24941 15.9087 9.72118C15.4369 10.193 15.1719 10.8328 15.1719 11.5Z" fill="black"/>
</svg>
