<svg width="15" height="14" viewBox="0 0 15 14" fill="none" xmlns="http://www.w3.org/2000/svg">
<path d="M14.753 12.5332L11.4589 9.4907C12.4466 8.30244 12.9077 6.81181 12.7488 5.32121C12.5898 3.8306 11.8226 2.45164 10.6029 1.46404C9.38317 0.476441 7.80222 -0.045834 6.18074 0.0031598C4.55927 0.0521536 3.01869 0.668747 1.87152 1.72786C0.724348 2.78698 0.0564897 4.2093 0.0034225 5.70632C-0.0496446 7.20333 0.516053 8.66293 1.58576 9.78903C2.65547 10.9151 4.14908 11.6234 5.76362 11.7702C7.37816 11.9169 8.99271 11.4912 10.2798 10.5794L13.5766 13.6238C13.654 13.6953 13.746 13.752 13.8471 13.7907C13.9483 13.8293 14.0567 13.8493 14.1662 13.8493C14.2757 13.8493 14.3841 13.8293 14.4853 13.7907C14.5864 13.752 14.6784 13.6953 14.7558 13.6238C14.8332 13.5523 14.8946 13.4674 14.9365 13.374C14.9784 13.2806 15 13.1805 15 13.0795C15 12.9784 14.9784 12.8783 14.9365 12.7849C14.8946 12.6915 14.8332 12.6066 14.7558 12.5351L14.753 12.5332ZM1.67871 5.90452C1.67871 5.04325 1.95534 4.20132 2.47362 3.4852C2.9919 2.76908 3.72855 2.21093 4.59042 1.88134C5.45228 1.55174 6.40065 1.46551 7.31561 1.63353C8.23056 1.80156 9.07099 2.2163 9.73064 2.82531C10.3903 3.43432 10.8395 4.21024 11.0215 5.05496C11.2035 5.89968 11.1101 6.77526 10.7531 7.57097C10.3961 8.36668 9.79154 9.04678 9.01588 9.52528C8.24022 10.0038 7.3283 10.2592 6.39542 10.2592C5.14487 10.258 3.9459 9.79881 3.06163 8.98241C2.17735 8.16601 1.68 7.05908 1.67871 5.90452Z" fill="#323232" fill-opacity="0.15"/>
</svg>
