<svg width="11" height="11" viewBox="0 0 11 11" fill="none" xmlns="http://www.w3.org/2000/svg">
<path d="M8.59375 5.84375C8.59375 5.93492 8.55753 6.02235 8.49307 6.08682C8.4286 6.15128 8.34117 6.1875 8.25 6.1875H2.75C2.65883 6.1875 2.5714 6.15128 2.50693 6.08682C2.44247 6.02235 2.40625 5.93492 2.40625 5.84375C2.40625 5.75258 2.44247 5.66515 2.50693 5.60068C2.5714 5.53622 2.65883 5.5 2.75 5.5H8.25C8.34117 5.5 8.4286 5.53622 8.49307 5.60068C8.55753 5.66515 8.59375 5.75258 8.59375 5.84375ZM9.96875 3.4375H1.03125C0.940082 3.4375 0.852648 3.47372 0.788182 3.53818C0.723716 3.60265 0.6875 3.69008 0.6875 3.78125C0.6875 3.87242 0.723716 3.95985 0.788182 4.02432C0.852648 4.08878 0.940082 4.125 1.03125 4.125H9.96875C10.0599 4.125 10.1474 4.08878 10.2118 4.02432C10.2763 3.95985 10.3125 3.87242 10.3125 3.78125C10.3125 3.69008 10.2763 3.60265 10.2118 3.53818C10.1474 3.47372 10.0599 3.4375 9.96875 3.4375ZM6.53125 7.5625H4.46875C4.37758 7.5625 4.29015 7.59872 4.22568 7.66318C4.16122 7.72765 4.125 7.81508 4.125 7.90625C4.125 7.99742 4.16122 8.08485 4.22568 8.14932C4.29015 8.21378 4.37758 8.25 4.46875 8.25H6.53125C6.62242 8.25 6.70985 8.21378 6.77432 8.14932C6.83878 8.08485 6.875 7.99742 6.875 7.90625C6.875 7.81508 6.83878 7.72765 6.77432 7.66318C6.70985 7.59872 6.62242 7.5625 6.53125 7.5625Z" fill="black"/>
</svg>
