<svg width="11" height="11" viewBox="0 0 11 11" fill="none" xmlns="http://www.w3.org/2000/svg">
<path d="M5.08245 0C4.07724 0 3.0946 0.29808 2.25879 0.856547C1.42299 1.41501 0.771559 2.20878 0.386881 3.13748C0.00220215 4.06617 -0.0984473 5.08809 0.0976601 6.07398C0.293767 7.05988 0.777824 7.96549 1.48862 8.67628C2.19941 9.38707 3.10501 9.87113 4.09091 10.0672C5.07681 10.2633 6.09872 10.1627 7.02742 9.77802C7.95611 9.39334 8.74988 8.74191 9.30835 7.9061C9.86682 7.0703 10.1649 6.08766 10.1649 5.08245C10.1632 3.73501 9.6272 2.44325 8.67443 1.49047C7.72165 0.537691 6.42988 0.00168114 5.08245 0ZM7.03724 5.4734H5.47341V7.03723C5.47341 7.14092 5.43222 7.24036 5.3589 7.31368C5.28558 7.387 5.18614 7.42819 5.08245 7.42819C4.97876 7.42819 4.87932 7.387 4.806 7.31368C4.73268 7.24036 4.69149 7.14092 4.69149 7.03723V5.4734H3.12766C3.02397 5.4734 2.92453 5.43221 2.85121 5.3589C2.77789 5.28558 2.7367 5.18614 2.7367 5.08245C2.7367 4.97876 2.77789 4.87932 2.85121 4.806C2.92453 4.73268 3.02397 4.69149 3.12766 4.69149H4.69149V3.12766C4.69149 3.02397 4.73268 2.92453 4.806 2.85121C4.87932 2.77789 4.97876 2.7367 5.08245 2.7367C5.18614 2.7367 5.28558 2.77789 5.3589 2.85121C5.43222 2.92453 5.47341 3.02397 5.47341 3.12766V4.69149H7.03724C7.14092 4.69149 7.24037 4.73268 7.31369 4.806C7.387 4.87932 7.42819 4.97876 7.42819 5.08245C7.42819 5.18614 7.387 5.28558 7.31369 5.3589C7.24037 5.43221 7.14092 5.4734 7.03724 5.4734Z" fill="white"/>
</svg>
